<?xml version="1.0" standalone="no"?>
<!DOCTYPE svg PUBLIC "-//W3C//DTD SVG 20010904//EN"
 "http://www.w3.org/TR/2001/REC-SVG-20010904/DTD/svg10.dtd">
<svg version="1.0" xmlns="http://www.w3.org/2000/svg"
 width="500.000000pt" height="500.000000pt" viewBox="0 0 500.000000 500.000000"
 preserveAspectRatio="xMidYMid meet">
<metadata>
Created by potrace 1.14, written by Peter Selinger 2001-2017
</metadata>
<g transform="translate(0.000000,500.000000) scale(0.100000,-0.100000)"
fill="#000000" stroke="none">
<path d="M2418 4830 c-84 -13 -202 -56 -264 -95 -30 -19 -100 -77 -155 -128
-279 -255 -257 -244 -561 -257 -298 -13 -366 -31 -515 -136 -82 -59 -146 -133
-193 -226 -54 -108 -69 -189 -78 -440 -9 -215 -9 -218 -40 -280 -22 -45 -68
-102 -161 -200 -139 -148 -171 -189 -219 -284 -82 -164 -87 -374 -12 -549 35
-81 89 -152 227 -298 96 -102 143 -160 165 -204 30 -61 31 -66 39 -275 5 -117
13 -238 19 -270 38 -200 173 -373 361 -463 101 -48 185 -63 379 -70 91 -3 194
-11 229 -16 103 -16 133 -36 326 -218 202 -191 333 -253 530 -253 110 0 204
21 292 66 92 46 125 72 292 226 196 181 194 180 465 192 242 10 321 24 423 73
173 81 268 190 338 383 31 87 34 109 45 352 4 114 14 220 21 240 20 56 59 106
199 255 201 213 249 310 258 515 5 130 -8 202 -58 307 -43 93 -74 133 -224
293 -191 202 -187 194 -198 479 -6 175 -13 244 -29 306 -59 230 -229 401 -462
465 -57 16 -125 23 -293 29 -299 13 -293 10 -516 217 -128 120 -187 164 -263
202 -107 53 -258 78 -367 62z m1005 -1564 c43 -18 83 -66 91 -110 14 -74 -2
-99 -206 -316 -162 -173 -355 -379 -963 -1029 -33 -35 -74 -70 -92 -77 -42
-18 -97 -18 -132 1 -41 21 -610 629 -627 670 -19 45 -17 71 6 122 33 74 117
108 194 79 34 -13 76 -53 197 -182 85 -91 187 -200 227 -242 l72 -77 48 51
c26 28 148 159 271 290 124 131 344 367 490 523 147 157 279 290 296 297 39
17 88 17 128 0z"/>
</g>
</svg>
